Coordinates
version=1
nRows=10
nColumns=40
inDegrees=yes

Units are S.I. units (second, meters, Newtons, ...)
If the header above contains a line with 'inDegrees', this indicates whether rotational values are in degrees (yes) or radians (no).

endheader
time	pelvis_tilt	pelvis_list	pelvis_rotation	pelvis_tx	pelvis_ty	pelvis_tz	hip_flexion_r	hip_adduction_r	hip_rotation_r	knee_angle_r	knee_angle_r_beta	ankle_angle_r	subtalar_angle_r	mtp_angle_r	hip_flexion_l	hip_adduction_l	hip_rotation_l	knee_angle_l	knee_angle_l_beta	ankle_angle_l	subtalar_angle_l	mtp_angle_l	lumbar_extension	lumbar_bending	lumbar_rotation	arm_flex_r	arm_add_r	arm_rot_r	elbow_flex_r	pro_sup_r	wrist_flex_r	wrist_dev_r	arm_flex_l	arm_add_l	arm_rot_l	elbow_flex_l	pro_sup_l	wrist_flex_l	wrist_dev_l
      0.00500000	     -4.03975934	      0.74289833	     -1.48925837	      0.26001941	      0.90654295	     -1.21046874	      1.26830004	    -16.73163410	    -39.35559555	      2.84702816	      0.04969002	    -11.62561695	      8.00273650	      0.00000000	      1.34574626	    -14.17462217	    -39.58151773	      1.13728993	      0.01984945	    -13.17809299	     12.91753997	      0.00000000	      3.95730443	     -1.10877541	     -1.16685318	     44.12993631	    -16.59206260	     44.12993631	     75.18591451	     44.88446408	      0.00000000	      0.00000000	     44.12993631	    -16.59206260	     44.12993631	     75.18591451	     44.88446408	      0.00000000	      0.00000000
      0.01000000	     -4.03956617	      0.73497933	     -1.47106680	      0.25997204	      0.90654889	     -1.21052907	      1.26980015	    -16.72736741	    -39.35229546	      2.85071754	      0.04975441	    -11.65561342	      7.92566851	      0.00000000	      1.36560051	    -14.18746992	    -39.58070956	      1.15986655	      0.02024349	    -13.15274384	     12.94552953	      0.00000000	      3.95417313	     -1.08529659	     -1.18777708	     44.17102688	    -16.49609887	     44.17102688	     75.17137358	     44.89725411	      0.00000000	      0.00000000	     44.17102688	    -16.49609887	     44.17102688	     75.17137358	     44.89725411	      0.00000000	      0.00000000
      0.01500000	     -4.03297547	      0.70846798	     -1.47260576	      0.25988696	      0.90655861	     -1.21053084	      1.28310132	    -16.70446964	    -39.35098575	      2.87872161	      0.05024317	    -11.69489467	      7.92034542	      0.00000000	      1.36852676	    -14.21997743	    -39.58049866	      1.17372164	      0.02048531	    -13.13532212	     12.95729709	      0.00000000	      3.94086947	     -1.05384610	     -1.20167722	     44.21477197	    -16.39445723	     44.21477197	     75.15595589	     44.91107848	      0.00000000	      0.00000000	     44.21477197	    -16.39445723	     44.21477197	     75.15595589	     44.91107848	      0.00000000	      0.00000000
      0.02000000	     -4.02032342	      0.71878850	     -1.47836727	      0.25976750	      0.90657641	     -1.21052610	      1.30498899	    -16.73258963	    -39.33774678	      2.92725234	      0.05109019	    -11.65726978	      7.84848266	      0.00000000	      1.37077719	    -14.21437000	    -39.57820579	      1.19337312	      0.02082829	    -13.14322628	     12.90444020	      0.00000000	      3.91419585	     -1.04729124	     -1.13564114	     44.24299081	    -16.33421092	     44.24299081	     75.14826794	     44.91571070	      0.00000000	      0.00000000	     44.24299081	    -16.33421092	     44.24299081	     75.14826794	     44.91571070	      0.00000000	      0.00000000
      0.02500000	     -4.01949672	      0.75373291	     -1.51467359	      0.25965203	      0.90655662	     -1.21047737	      1.39318556	    -16.82754581	    -39.35014213	      3.10900785	      0.05426242	    -11.49913946	      7.95281074	      0.00000000	      1.36050992	    -14.16971983	    -39.57976087	      1.17357916	      0.02048282	    -13.17034756	     12.86394992	      0.00000000	      3.90528038	     -1.08488574	     -1.09548195	     44.28073820	    -16.25108989	     44.28073820	     75.13683370	     44.92370586	      0.00000000	      0.00000000	     44.28073820	    -16.25108989	     44.28073820	     75.13683370	     44.92370586	      0.00000000	      0.00000000
      0.03000000	     -4.01025408	      0.75054872	     -1.51544078	      0.25952210	      0.90658438	     -1.21047761	      1.41437146	    -16.83398958	    -39.33888169	      3.14574582	      0.05490362	    -11.51546221	      7.87773650	      0.00000000	      1.36874648	    -14.17739059	    -39.57842266	      1.18853379	      0.02074383	    -13.15333554	     12.83616750	      0.00000000	      3.87960529	     -1.07185983	     -1.06665899	     44.32365777	    -16.15927165	     44.32365777	     75.12480341	     44.93143717	      0.00000000	      0.00000000	     44.32365777	    -16.15927165	     44.32365777	     75.12480341	     44.93143717	      0.00000000	      0.00000000
      0.03500000	     -4.00429832	      0.70452628	     -1.49833465	      0.25941086	      0.90659633	     -1.21052651	      1.42808469	    -16.79147284	    -39.33439414	      3.17102317	      0.05534480	    -11.58169518	      7.77296647	      0.00000000	      1.39227439	    -14.24110086	    -39.57588861	      1.22935071	      0.02145622	    -13.14266954	     12.87046422	      0.00000000	      3.86530403	     -1.07367859	     -1.18511898	     44.36557320	    -16.06639555	     44.36557320	     75.11146600	     44.94248408	      0.00000000	      0.00000000	     44.36557320	    -16.06639555	     44.36557320	     75.11146600	     44.94248408	      0.00000000	      0.00000000
      0.04000000	     -3.99633666	      0.75067249	     -1.52008264	      0.25925988	      0.90659878	     -1.21049923	      1.50209283	    -16.89238709	    -39.33612760	      3.33494504	      0.05820577	    -11.45162104	      7.80736317	      0.00000000	      1.38926868	    -14.18700962	    -39.57651126	      1.22512951	      0.02138254	    -13.17035530	     12.81369624	      0.00000000	      3.84342834	     -1.11185600	     -1.13763310	     44.39706219	    -15.99814153	     44.39706219	     75.10199113	     44.94977423	      0.00000000	      0.00000000	     44.39706219	    -15.99814153	     44.39706219	     75.10199113	     44.94977423	      0.00000000	      0.00000000
      0.04500000	     -3.96109361	      0.74857151	     -1.54958594	      0.25909896	      0.90665597	     -1.21045173	      1.54702299	    -16.93682973	    -39.34086974	      3.47985634	      0.06073495	    -11.39914412	      7.83721681	      0.00000000	      1.35906075	    -14.19185993	    -39.57879504	      1.24070440	      0.02165438	    -13.17009370	     12.75088192	      0.00000000	      3.78481283	     -1.11908535	     -1.10688914	     44.43550003	    -15.91674224	     44.43550003	     75.09111766	     44.95750720	      0.00000000	      0.00000000	     44.43550003	    -15.91674224	     44.43550003	     75.09111766	     44.95750720	      0.00000000	      0.00000000
      0.05000000	     -3.97334467	      0.75321786	     -1.53908509	      0.25894845	      0.90662403	     -1.21046511	      1.60883444	    -16.96202352	    -39.32965770	      3.56355358	      0.06219574	    -11.37546336	      7.74307024	      0.00000000	      1.39990306	    -14.19758424	    -39.57407131	      1.26418657	      0.02206422	    -13.15649397	     12.79657387	      0.00000000	      3.78990681	     -1.11235620	     -1.09520491	     44.47590650	    -15.83349259	     44.47590650	     75.08047221	     44.96443861	      0.00000000	      0.00000000	     44.47590650	    -15.83349259	     44.47590650	     75.08047221	     44.96443861	      0.00000000	      0.00000000
